<?xml version="1.0" encoding="UTF-8" standalone="no"?>
<!-- Created with Inkscape (http://www.inkscape.org/) -->

<svg
   width="200"
   height="200"
   viewBox="0 0 52.916665 52.916666"
   version="1.1"
   id="svg1"
   xml:space="preserve"
   inkscape:version="1.4.2 (ebf0e940d0, 2025-05-08)"
   sodipodi:docname="dibujo.svg"
   xmlns:inkscape="http://www.inkscape.org/namespaces/inkscape"
   xmlns:sodipodi="http://sodipodi.sourceforge.net/DTD/sodipodi-0.dtd"
   xmlns="http://www.w3.org/2000/svg"
   xmlns:svg="http://www.w3.org/2000/svg"><sodipodi:namedview
     id="namedview1"
     pagecolor="#505050"
     bordercolor="#eeeeee"
     borderopacity="1"
     inkscape:showpageshadow="0"
     inkscape:pageopacity="0"
     inkscape:pagecheckerboard="0"
     inkscape:deskcolor="#505050"
     inkscape:document-units="px"
     inkscape:zoom="1.4425854"
     inkscape:cx="132.05457"
     inkscape:cy="196.86875"
     inkscape:window-width="1920"
     inkscape:window-height="997"
     inkscape:window-x="0"
     inkscape:window-y="0"
     inkscape:window-maximized="1"
     inkscape:current-layer="layer1" /><defs
     id="defs1" /><g
     inkscape:label="Capa 1"
     inkscape:groupmode="layer"
     id="layer1"><path
       style="fill:#ffffff;stroke-width:1.29383;fill-opacity:1"
       d="M 5.9634576,43.853559 C 2.157028,43.262256 0.87254027,40.503808 2.6618957,36.763429 3.2162632,35.604607 4.4566631,33.840746 5.746833,32.376621 l 0.4750761,-0.539133 -0.3635312,-0.3786 C 4.9267595,30.488652 1.9961009,26.92275 1.6362566,26.321589 c -0.048687,-0.08134 0.7532513,-1.197756 1.7206282,-2.395374 1.332966,-1.650218 3.8527777,-4.298058 5.8306276,-6.126873 2.9360986,-2.714861 5.3150626,-4.396331 8.0781856,-5.709724 4.558913,-2.1669871 9.06691,-2.8055929 13.440497,-1.903988 1.684908,0.347339 4.006412,1.177653 5.718983,2.04546 1.079537,0.547033 2.982694,1.70439 4.05427,2.465502 1.176674,0.835762 3.151308,2.498771 4.315408,3.634374 l 0.981594,0.957567 0.422476,-0.513494 c 1.849072,-2.247439 2.782631,-4.174072 2.634775,-5.437525 -0.02423,-0.20703 -0.105201,-0.502967 -0.179955,-0.657637 -0.371585,-0.768899 -1.496444,-1.263366 -3.041329,-1.336914 l -0.808401,-0.03849 -0.200291,0.427146 c -0.266075,0.567437 -0.715746,1.018708 -1.27689,1.28144 -0.397527,0.186123 -0.515467,0.210037 -1.017936,0.206395 -0.814476,-0.006 -1.241043,-0.183399 -1.811347,-0.753703 -0.549771,-0.54977 -0.741909,-0.999092 -0.739859,-1.730185 0.0017,-0.582392 0.135891,-1.0216224 0.445298,-1.456811 0.505845,-0.711482 1.194425,-1.0583356 2.105908,-1.0607926 0.501001,-0.00129 0.621697,0.023612 1.019005,0.2107454 0.542539,0.2555378 1.032931,0.7249456 1.257968,1.2041386 0.115953,0.2469209 0.19257,0.337128 0.263727,0.3105255 0.05516,-0.020624 0.47638,-0.05306 0.936047,-0.072092 1.744203,-0.072222 2.976044,0.3431611 3.904576,1.3166301 0.485958,0.509477 0.75172,1.072601 0.849659,1.800347 0.247073,1.83589 -0.723211,4.058199 -3.038707,6.95976 l -0.506879,0.635174 0.387988,0.401163 c 1.466056,1.515841 4.388512,5.051921 4.322704,5.230339 -0.06346,0.172078 -1.638069,2.233113 -2.414691,3.160652 -1.164348,1.39061 -2.24954,2.562051 -3.969434,4.284916 -3.295186,3.30088 -6.22031,5.340142 -10.04575,7.003439 -2.069804,0.899949 -4.86145,1.563711 -7.374647,1.753451 -2.766142,0.208836 -6.092711,-0.243555 -8.424421,-1.145664 -0.294187,-0.113818 -0.564971,-0.20723 -0.601744,-0.207585 -0.03677,-3.54e-4 -0.578343,0.193252 -1.203489,0.430236 -5.245053,1.988326 -9.0978392,2.764791 -11.7073534,2.359421 z M 8.397121,42.146505 c 1.1838669,-0.08167 2.315699,-0.279061 3.67387,-0.640733 1.153528,-0.307175 3.792646,-1.137441 4.298761,-1.352389 l 0.285524,-0.121258 -0.823619,-0.455358 C 14.137062,38.63987 12.670199,37.635261 10.863002,36.173894 9.9304758,35.419817 9.4025585,34.955008 7.9640026,33.621441 L 7.4170814,33.114435 6.9022473,33.702016 c -2.3653255,2.699548 -3.5670601,5.274163 -3.1428686,6.733331 0.2035815,0.700296 0.9583249,1.325327 1.9029737,1.575923 0.2855947,0.07577 1.1379812,0.176159 1.6116522,0.189823 0.1287102,0.0038 0.6341084,-0.02084 1.1231164,-0.05459 z m 19.703925,-2.008191 c 5.086366,-0.420395 9.850047,-2.649157 14.441866,-6.756849 1.747821,-1.563545 4.090726,-4.068186 5.77493,-6.173588 0.646219,-0.807831 0.732583,-0.944501 0.654877,-1.036338 -0.04923,-0.05818 -0.46682,-0.557096 -0.927975,-1.108696 -0.83941,-1.004039 -2.433465,-2.793189 -2.517047,-2.825106 -0.02444,-0.0093 -0.417267,0.356768 -0.872958,0.813556 l -0.828527,0.830521 0.996431,1.041749 c 0.548038,0.57296 0.996433,1.084221 0.996433,1.136132 0,0.153169 -1.91658,2.321241 -3.109013,3.516978 -2.65417,2.661519 -5.701494,4.863063 -8.322306,6.012463 -2.596169,1.13859 -6.166502,1.793766 -8.778155,1.610837 -2.558283,-0.179189 -5.249385,-0.887121 -7.416317,-1.950964 -1.698589,-0.833914 -3.597321,-2.137681 -5.768558,-3.960988 -1.261963,-1.05974 -3.3054784,-3.165597 -4.5508733,-4.689706 L 7.4776909,26.113492 9.3383781,24.217511 C 12.038526,21.466145 14.01122,19.760747 16.19988,18.28573 c 2.178876,-1.468424 3.873661,-2.285489 5.968868,-2.877628 4.460147,-1.260509 8.84083,-0.656611 13.286952,1.831669 2.086803,1.167883 4.325742,2.833983 6.295691,4.684919 l 0.81313,0.764006 0.876323,-0.919032 0.876322,-0.919031 -0.753406,-0.731477 c -2.030757,-1.97165 -4.680641,-3.994934 -6.839032,-5.221851 -2.603401,-1.479878 -5.140135,-2.332597 -7.955077,-2.674084 -1.155452,-0.140171 -3.676219,-0.104632 -4.780524,0.06738 -4.713454,0.734248 -9.003477,3.073346 -13.817533,7.533887 -1.702439,1.577422 -4.052525,4.094881 -5.5296221,5.92344 l -0.3913856,0.484519 0.6326682,0.785837 c 2.9233653,3.63111 6.7184295,7.22412 9.8122645,9.289844 4.257176,2.842476 8.991113,4.195041 13.405527,3.830183 z m 5.320485,-6.471482 c 2.124742,-0.952896 3.56893,-1.850911 5.444054,-3.385185 0.972085,-0.795386 2.48685,-2.244411 3.316143,-3.172226 l 0.859976,-0.962144 -0.525552,-0.575647 c -1.214751,-1.330541 -3.150223,-3.054436 -4.954346,-4.412764 -0.837059,-0.630223 -1.998063,-1.364767 -3.003779,-1.900429 l -0.640119,-0.340938 0.200583,0.264029 c 1.088044,1.43222 1.821649,3.017896 2.179638,4.711257 0.215558,1.019634 0.218061,2.674673 0.0057,3.732654 -0.298035,1.484419 -0.908922,2.943121 -1.701488,4.062882 -0.420253,0.593746 -1.470148,1.711456 -2.088448,2.223347 -0.183866,0.152223 -0.316975,0.276963 -0.295797,0.2772 0.02118,2.38e-4 0.562748,-0.234679 1.203489,-0.522036 z m -12.708568,0.205322 c -1.299468,-1.069679 -2.277858,-2.308362 -2.944538,-3.727913 -1.579311,-3.362799 -1.245998,-7.192889 0.901619,-10.360465 0.237942,-0.350946 0.411089,-0.638086 0.384768,-0.638086 -0.02632,0 -0.477459,0.254168 -1.002534,0.564815 -2.159628,1.277695 -4.63118,3.241968 -6.468647,5.140976 -0.678723,0.701457 -1.234044,1.298464 -1.234044,1.326682 0,0.197493 1.839174,2.109868 3.033933,3.15469 2.276973,1.99122 4.270305,3.322308 6.493686,4.33629 1.204717,0.549417 1.278286,0.567287 0.835757,0.203011 z m 6.217269,-4.888275 c 0.371224,-1.458367 0.503809,-1.710974 1.146272,-2.183929 0.516573,-0.380279 1.101384,-0.652719 1.873941,-0.87299 0.788524,-0.224824 0.853899,-0.25796 0.685275,-0.347342 -0.07023,-0.03722 -0.383438,-0.134928 -0.69601,-0.217112 -0.838462,-0.220454 -1.606486,-0.598325 -2.029787,-0.998666 -0.508966,-0.48136 -0.723118,-1.000919 -1.131148,-2.744312 -0.154071,-0.658297 -0.247687,-0.768219 -0.330883,-0.388515 -0.02668,0.12175 -0.124233,0.567368 -0.216795,0.99026 -0.208501,0.9526 -0.524259,1.73392 -0.850533,2.104587 -0.335999,0.381717 -1.009772,0.721783 -1.920924,0.969527 -0.797085,0.216731 -1.008304,0.301004 -1.008304,0.4023 0,0.06236 0.06939,0.08497 1.031777,0.336183 0.590442,0.154125 1.56658,0.630286 1.88077,0.917442 0.290474,0.26548 0.6009,1.06336 0.870358,2.237059 0.22883,0.996735 0.279697,1.161194 0.340389,1.100503 0.01727,-0.01727 0.177299,-0.604526 0.355602,-1.304995 z"
       id="path1" /></g></svg>
